<svg xmlns="http://www.w3.org/2000/svg" viewBox="0 0 512 512">
  <defs>
    <linearGradient id="heartGrad" x1="0" y1="0" x2="0" y2="1">
      <stop offset="0%" stop-color="#FF4D8D"/>
      <stop offset="100%" stop-color="#E8384F"/>
    </linearGradient>
  </defs>
  <rect width="512" height="512" rx="108" fill="#fff"/>
  <path d="M256 420c-8 0-15-3-20-8C180 360 108 296 108 216c0-52 42-94 94-94 30 0 54 14 54 14s24-14 54-14c52 0 94 42 94 94 0 80-72 144-128 196-5 5-12 8-20 8z" fill="url(#heartGrad)"/>
  <path d="M148 256h60l24-48 32 96 28-72 24 24h48" fill="none" stroke="#fff" stroke-width="16" stroke-linecap="round" stroke-linejoin="round"/>
</svg>
